<svg width="360" height="150" viewBox="0 0 360 150" fill="none" xmlns="http://www.w3.org/2000/svg" role="img" aria-labelledby="t">
  <title id="t">LIBI DIAMONDS</title>
  <g transform="translate(99.6673828125 76)"><path d="M22.62-37.79L16.08-37.79L16.08-1.49L24.90-1.49Q27.45-1.49 28.92-1.87Q30.38-2.26 31.80-3.72Q33.22-5.19 34-7.21Q34.78-9.23 35.65-12.83L37.03-12.83L35.95 0L2.93 0L2.93-1.49L9.11-1.49L9.11-37.79L2.93-37.79L2.93-39.29L22.62-39.29 M51.23-1.49L57.65-1.49L57.65-37.79L51.23-37.79L51.23-39.29L71.09-39.29L71.09-37.79L64.62-37.79L64.62-1.49L71.09-1.49L71.09 0L51.23 0 M86.44-1.49L92.50-1.49L92.50-37.79L86.44-37.79L86.44-39.29L106.74-39.29Q110.08-39.29 112.36-38.95Q114.65-38.61 116.76-37.21Q118.87-35.80 119.79-33.74Q120.71-31.67 120.71-29.82Q120.71-22.82 109.96-20.65L109.96-20.51Q122.09-18.54 122.09-10.43Q122.09-8.44 121.01-6.23Q119.92-4.01 117.55-2.40Q115.18-0.79 112.70-0.40Q110.23 0 106.48 0L86.44 0L86.44-1.49M105.48-37.79L99.47-37.79L99.47-21.30L104.86-21.30Q110.34-21.30 111.87-23.44Q113.39-25.58 113.39-30.18Q113.39-33.78 112.39-35.42Q111.40-37.06 109.86-37.43Q108.32-37.79 105.48-37.79M104.81-19.80L99.47-19.80L99.47-1.49L104.98-1.49Q108.06-1.49 109.89-1.96Q111.72-2.43 113.01-4.47Q114.30-6.50 114.30-10.87Q114.30-15.53 112.35-17.67Q110.40-19.80 104.81-19.80 M137.93-1.49L144.35-1.49L144.35-37.79L137.93-37.79L137.93-39.29L157.79-39.29L157.79-37.79L151.32-37.79L151.32-1.49L157.79-1.49L157.79 0L137.93 0" fill="#F7F6F2"/></g>
  <g transform="translate(104.53860351562501 110)"><path d="M0.74-0.41L2.43-0.41L2.43-10.39L0.74-10.39L0.74-10.80L5.84-10.80Q7.53-10.80 8.74-10.32Q9.94-9.85 10.75-8.45Q11.55-7.05 11.55-5.41Q11.55-3.68 10.67-2.32Q9.78-0.96 8.62-0.48Q7.47 0 5.81 0L0.74 0L0.74-0.41M5.78-10.39L4.34-10.39L4.34-0.41L5.74-0.41Q6.85-0.41 7.55-0.61Q8.24-0.81 8.70-1.49Q9.15-2.17 9.31-3.21Q9.47-4.25 9.47-5.92Q9.47-7.94 8.96-8.93Q8.45-9.92 7.71-10.16Q6.97-10.39 5.78-10.39 M21.91-0.41L23.67-0.41L23.67-10.39L21.91-10.39L21.91-10.80L27.37-10.80L27.37-10.39L25.59-10.39L25.59-0.41L27.37-0.41L27.37 0L21.91 0 M44.71-0.41L43.65-3.37L40.22-3.37L39.11-0.41L41.11-0.41L41.11 0L37.20 0L37.20-0.41L38.69-0.41L42.63-11.05L42.88-11.05L46.66-0.41L48.11-0.41L48.11 0L42.96 0L42.96-0.41L44.71-0.41M41.95-8.10L40.37-3.78L43.51-3.78L41.98-8.10 M57.72-10.39L57.72-10.80L61.60-10.80L63.91-3.17L63.94-3.17L66.27-10.80L70.05-10.80L70.05-10.39L68.45-10.39L68.45-0.41L70.05-0.41L70.05 0L64.97 0L64.97-0.41L66.62-0.41L66.62-10.58L66.59-10.58L63.37 0L63 0L59.79-10.58L59.76-10.58L59.76-0.41L61.41-0.41L61.41 0L57.72 0L57.72-0.41L59.34-0.41L59.34-10.39 M85.33 0.25Q83.23 0.25 81.77-1.51Q80.31-3.26 80.31-5.26Q80.31-7.66 81.84-9.36Q83.38-11.05 85.41-11.05Q87.32-11.05 88.83-9.33Q90.35-7.61 90.35-5.41Q90.35-3.16 88.83-1.45Q87.31 0.25 85.33 0.25M85.36-10.64Q84.47-10.64 83.77-10.24Q83.06-9.83 82.81-8.82Q82.56-7.81 82.56-5.31Q82.56-3.58 82.70-2.55Q82.85-1.51 83.44-0.84Q84.03-0.16 85.29-0.16Q86.07-0.16 86.85-0.57Q87.62-0.98 87.86-2.19Q88.10-3.39 88.10-5.89Q88.10-8.15 87.80-9.02Q87.51-9.88 86.86-10.26Q86.21-10.64 85.36-10.64 M111.65-10.39L110.01-10.39L110.01 0.25L109.68 0.25L102.57-10.44L102.54-10.44L102.54-0.41L104.36-0.41L104.36 0L100.52 0L100.52-0.41L102.12-0.41L102.12-10.39L100.41-10.39L100.41-10.80L104.53-10.80L109.57-3.23L109.60-3.23L109.60-10.39L107.81-10.39L107.81-10.80L111.65-10.80 M121.60-0.41L123.29-0.41L123.29-10.39L121.60-10.39L121.60-10.80L126.70-10.80Q128.40-10.80 129.60-10.32Q130.81-9.85 131.61-8.45Q132.42-7.05 132.42-5.41Q132.42-3.68 131.53-2.32Q130.64-0.96 129.49-0.48Q128.33 0 126.67 0L121.60 0L121.60-0.41M126.64-10.39L125.21-10.39L125.21-0.41L126.61-0.41Q127.71-0.41 128.41-0.61Q129.11-0.81 129.56-1.49Q130.02-2.17 130.18-3.21Q130.34-4.25 130.34-5.92Q130.34-7.94 129.83-8.93Q129.32-9.92 128.57-10.16Q127.83-10.39 126.64-10.39 M149.08-10.92L149.41-10.92L149.46-8.12L149.08-8.12Q148.27-10.64 146.23-10.64Q145.11-10.64 144.48-10.02Q143.86-9.39 143.86-8.73Q143.86-8.10 144.38-7.67Q144.90-7.23 146.27-7Q147.65-6.76 148.37-6.42Q149.09-6.07 149.59-5.28Q150.08-4.48 150.08-3.45Q150.08-1.86 149.05-0.81Q148.01 0.25 146.48 0.25Q145.23 0.25 143.99-0.68L143.24 0L142.95 0L142.95-3.02L143.30-3.02Q143.78-1.60 144.63-0.88Q145.48-0.16 146.50-0.16Q147.51-0.16 148.35-0.83Q149.19-1.49 149.19-2.51Q149.19-3.36 148.61-3.94Q148.02-4.53 146.71-4.75Q145.40-4.97 144.70-5.27Q144-5.56 143.50-6.29Q143-7.02 143-7.90Q143-9.13 143.87-10.09Q144.74-11.05 146.23-11.05Q147.48-11.05 148.56-10.26Q148.86-10.55 149.08-10.92" fill="#9EA29F"/></g>
</svg>