<svg xmlns="http://www.w3.org/2000/svg" viewBox="0 0 64 64">
  <rect width="64" height="64" fill="#121313"/>
  <g transform="translate(6.4 6.4) scale(0.512)"><g fill="none" stroke-linecap="round">
    <path d="M50 30.5 L29 38.5 L50 83.5 L71 38.5 Z M29 38.5 H71" stroke="#A88F60" stroke-width="2.6" stroke-linejoin="round" fill="none"/>
    <path d="M50 87 C41 79.5 26 67 18.5 54 C14 46 12 39.5 12 33.5 C12 21.5 20 13.5 30.5 13.5 C39.5 13.5 47.5 19.5 50 28.5 C52.5 19.5 60.5 13.5 69.5 13.5 C80 13.5 88 21.5 88 33.5 C88 39.5 86 46 81.5 54 C74 67 59 79.5 50 87 Z" stroke="#A88F60" stroke-width="4.2" stroke-linejoin="round"/>
  </g></g>
</svg>